<svg width="66" height="66" viewBox="0 0 66 66" fill="none" xmlns="http://www.w3.org/2000/svg">
<g filter="url(#filter0_d_1_1212)">
<path fill-rule="evenodd" clip-rule="evenodd" d="M30.1572 37.7714V34.7047C30.1572 33.9246 30.7931 33.2908 31.581 33.2856H34.4671C35.2587 33.2856 35.9005 33.9209 35.9005 34.7047V37.7809C35.9003 38.4432 36.4343 38.9845 37.103 39H39.0271C40.9451 39 42.5 37.4607 42.5 35.5618V26.8378C42.4898 26.0908 42.1355 25.3893 41.538 24.933L34.9577 19.6853C33.8049 18.7716 32.1662 18.7716 31.0134 19.6853L24.462 24.9426C23.8623 25.397 23.5074 26.0997 23.5 26.8474V35.5618C23.5 37.4607 25.0549 39 26.9729 39H28.897C29.5824 39 30.138 38.4499 30.138 37.7714" fill="#5956E9"/>
<path d="M30.1572 37.7714V34.7047C30.1572 33.9246 30.7931 33.2908 31.581 33.2856H34.4671C35.2587 33.2856 35.9005 33.9209 35.9005 34.7047V34.7047V37.7809C35.9003 38.4432 36.4343 38.9845 37.103 39H39.0271C40.9451 39 42.5 37.4607 42.5 35.5618V35.5618V26.8378C42.4898 26.0908 42.1355 25.3893 41.538 24.933L34.9577 19.6853C33.8049 18.7716 32.1662 18.7716 31.0134 19.6853L24.462 24.9426C23.8623 25.397 23.5074 26.0997 23.5 26.8474V35.5618C23.5 37.4607 25.0549 39 26.9729 39H28.897C29.5824 39 30.138 38.4499 30.138 37.7714V37.7714" stroke="#5956E9" stroke-width="1.5" stroke-linecap="round" stroke-linejoin="round"/>
</g>
<defs>
<filter id="filter0_d_1_1212" x="-1" y="-1" width="68" height="68" filterUnits="userSpaceOnUse" color-interpolation-filters="sRGB">
<feFlood flood-opacity="0" result="BackgroundImageFix"/>
<feColorMatrix in="SourceAlpha" type="matrix" values="0 0 0 0 0 0 0 0 0 0 0 0 0 0 0 0 0 0 127 0" result="hardAlpha"/>
<feOffset dy="4"/>
<feGaussianBlur stdDeviation="11"/>
<feColorMatrix type="matrix" values="0 0 0 0 0.34902 0 0 0 0 0.337255 0 0 0 0 0.913725 0 0 0 0.54 0"/>
<feBlend mode="normal" in2="BackgroundImageFix" result="effect1_dropShadow_1_1212"/>
<feBlend mode="normal" in="SourceGraphic" in2="effect1_dropShadow_1_1212" result="shape"/>
</filter>
</defs>
</svg>
